<mxfile host="app.diagrams.net" agent="Mozilla/5.0 (Windows NT 10.0; Win64; x64) AppleWebKit/537.36 (KHTML, like Gecko) Chrome/128.0.0.0 Safari/537.36 Edg/128.0.0.0" version="24.7.15">
  <diagram name="Страница — 1" id="neEQca4t7Ue72H7kBH7m">
    <mxGraphModel dx="1379" dy="786" grid="1" gridSize="10" guides="1" tooltips="1" connect="1" arrows="1" fold="1" page="1" pageScale="1" pageWidth="827" pageHeight="1169" math="0" shadow="0">
      <root>
        <mxCell id="0" />
        <mxCell id="1" parent="0" />
        <mxCell id="ooN4iQWMbTiImWeOwy-m-3" value="" style="rounded=0;whiteSpace=wrap;html=1;" vertex="1" parent="1">
          <mxGeometry x="270" y="100" width="400" height="650" as="geometry" />
        </mxCell>
        <mxCell id="ooN4iQWMbTiImWeOwy-m-8" style="rounded=0;orthogonalLoop=1;jettySize=auto;html=1;entryX=1;entryY=0.5;entryDx=0;entryDy=0;" edge="1" parent="1" source="rPMyyO2hWBG3rqyP4Z32-1" target="ThG-nrVXH7HYm3xRA08Z-4">
          <mxGeometry relative="1" as="geometry" />
        </mxCell>
        <mxCell id="rPMyyO2hWBG3rqyP4Z32-1" value="Гость" style="shape=umlActor;verticalLabelPosition=bottom;verticalAlign=top;html=1;outlineConnect=0;" parent="1" vertex="1">
          <mxGeometry x="760" y="235" width="30" height="60" as="geometry" />
        </mxCell>
        <mxCell id="rPMyyO2hWBG3rqyP4Z32-33" style="rounded=0;orthogonalLoop=1;jettySize=auto;html=1;endArrow=block;endFill=0;" parent="1" source="rPMyyO2hWBG3rqyP4Z32-2" target="rPMyyO2hWBG3rqyP4Z32-18" edge="1">
          <mxGeometry relative="1" as="geometry" />
        </mxCell>
        <mxCell id="ooN4iQWMbTiImWeOwy-m-4" style="rounded=0;orthogonalLoop=1;jettySize=auto;html=1;entryX=0;entryY=0.5;entryDx=0;entryDy=0;" edge="1" parent="1" source="rPMyyO2hWBG3rqyP4Z32-2" target="ThG-nrVXH7HYm3xRA08Z-1">
          <mxGeometry relative="1" as="geometry" />
        </mxCell>
        <mxCell id="ooN4iQWMbTiImWeOwy-m-5" style="rounded=0;orthogonalLoop=1;jettySize=auto;html=1;entryX=0;entryY=0.5;entryDx=0;entryDy=0;" edge="1" parent="1" source="rPMyyO2hWBG3rqyP4Z32-2" target="ThG-nrVXH7HYm3xRA08Z-2">
          <mxGeometry relative="1" as="geometry" />
        </mxCell>
        <mxCell id="ooN4iQWMbTiImWeOwy-m-6" style="rounded=0;orthogonalLoop=1;jettySize=auto;html=1;entryX=0;entryY=0.5;entryDx=0;entryDy=0;" edge="1" parent="1" source="rPMyyO2hWBG3rqyP4Z32-2" target="ThG-nrVXH7HYm3xRA08Z-3">
          <mxGeometry relative="1" as="geometry" />
        </mxCell>
        <mxCell id="rPMyyO2hWBG3rqyP4Z32-2" value="Ведущий" style="shape=umlActor;verticalLabelPosition=bottom;verticalAlign=top;html=1;outlineConnect=0;" parent="1" vertex="1">
          <mxGeometry x="160" y="600" width="30" height="60" as="geometry" />
        </mxCell>
        <mxCell id="rPMyyO2hWBG3rqyP4Z32-23" style="rounded=0;orthogonalLoop=1;jettySize=auto;html=1;entryX=0;entryY=0.5;entryDx=0;entryDy=0;" parent="1" source="rPMyyO2hWBG3rqyP4Z32-18" edge="1">
          <mxGeometry relative="1" as="geometry">
            <mxPoint x="320" y="219.9999999999999" as="targetPoint" />
          </mxGeometry>
        </mxCell>
        <mxCell id="rPMyyO2hWBG3rqyP4Z32-24" style="rounded=0;orthogonalLoop=1;jettySize=auto;html=1;entryX=0;entryY=0.5;entryDx=0;entryDy=0;" parent="1" source="rPMyyO2hWBG3rqyP4Z32-18" edge="1">
          <mxGeometry relative="1" as="geometry">
            <mxPoint x="320" y="274.9999999999999" as="targetPoint" />
          </mxGeometry>
        </mxCell>
        <mxCell id="rPMyyO2hWBG3rqyP4Z32-25" style="rounded=0;orthogonalLoop=1;jettySize=auto;html=1;" parent="1" source="rPMyyO2hWBG3rqyP4Z32-18" edge="1">
          <mxGeometry relative="1" as="geometry">
            <mxPoint x="320" y="331.1538461538462" as="targetPoint" />
          </mxGeometry>
        </mxCell>
        <mxCell id="rPMyyO2hWBG3rqyP4Z32-26" style="rounded=0;orthogonalLoop=1;jettySize=auto;html=1;entryX=0;entryY=0.5;entryDx=0;entryDy=0;" parent="1" source="rPMyyO2hWBG3rqyP4Z32-18" edge="1">
          <mxGeometry relative="1" as="geometry">
            <mxPoint x="320" y="394.9999999999999" as="targetPoint" />
          </mxGeometry>
        </mxCell>
        <mxCell id="rPMyyO2hWBG3rqyP4Z32-27" style="rounded=0;orthogonalLoop=1;jettySize=auto;html=1;entryX=0;entryY=0.5;entryDx=0;entryDy=0;" parent="1" source="rPMyyO2hWBG3rqyP4Z32-18" edge="1">
          <mxGeometry relative="1" as="geometry">
            <mxPoint x="320" y="450" as="targetPoint" />
          </mxGeometry>
        </mxCell>
        <mxCell id="rPMyyO2hWBG3rqyP4Z32-28" style="rounded=0;orthogonalLoop=1;jettySize=auto;html=1;" parent="1" source="rPMyyO2hWBG3rqyP4Z32-18" edge="1">
          <mxGeometry relative="1" as="geometry">
            <mxPoint x="320" y="500" as="targetPoint" />
          </mxGeometry>
        </mxCell>
        <mxCell id="ooN4iQWMbTiImWeOwy-m-9" style="rounded=0;orthogonalLoop=1;jettySize=auto;html=1;entryX=0;entryY=0.5;entryDx=0;entryDy=0;" edge="1" parent="1" source="rPMyyO2hWBG3rqyP4Z32-18" target="ThG-nrVXH7HYm3xRA08Z-5">
          <mxGeometry relative="1" as="geometry" />
        </mxCell>
        <mxCell id="rPMyyO2hWBG3rqyP4Z32-18" value="Пользователь" style="shape=umlActor;verticalLabelPosition=bottom;verticalAlign=top;html=1;outlineConnect=0;" parent="1" vertex="1">
          <mxGeometry x="160" y="300" width="30" height="60" as="geometry" />
        </mxCell>
        <mxCell id="ThG-nrVXH7HYm3xRA08Z-1" value="Управление игрой" style="rounded=0;whiteSpace=wrap;html=1;" parent="1" vertex="1">
          <mxGeometry x="320" y="550" width="120" height="40" as="geometry" />
        </mxCell>
        <mxCell id="ThG-nrVXH7HYm3xRA08Z-2" value="Просмотр вопросов" style="rounded=0;whiteSpace=wrap;html=1;" parent="1" vertex="1">
          <mxGeometry x="320" y="610" width="120" height="40" as="geometry" />
        </mxCell>
        <mxCell id="ThG-nrVXH7HYm3xRA08Z-3" value="Редактирование&lt;div&gt;&lt;span style=&quot;background-color: initial;&quot;&gt;вопросов&lt;/span&gt;&lt;/div&gt;" style="rounded=0;whiteSpace=wrap;html=1;" parent="1" vertex="1">
          <mxGeometry x="320" y="670" width="120" height="40" as="geometry" />
        </mxCell>
        <mxCell id="ThG-nrVXH7HYm3xRA08Z-4" value="Регистрация" style="rounded=0;whiteSpace=wrap;html=1;" parent="1" vertex="1">
          <mxGeometry x="500" y="195" width="120" height="40" as="geometry" />
        </mxCell>
        <mxCell id="ThG-nrVXH7HYm3xRA08Z-5" value="Авторизация" style="rounded=0;whiteSpace=wrap;html=1;" parent="1" vertex="1">
          <mxGeometry x="320" y="130" width="120" height="40" as="geometry" />
        </mxCell>
        <mxCell id="ThG-nrVXH7HYm3xRA08Z-6" value="Создание игр" style="rounded=0;whiteSpace=wrap;html=1;" parent="1" vertex="1">
          <mxGeometry x="320" y="250" width="120" height="40" as="geometry" />
        </mxCell>
        <mxCell id="ThG-nrVXH7HYm3xRA08Z-7" value="Присоединение&amp;nbsp;&lt;div&gt;к игре&lt;/div&gt;" style="rounded=0;whiteSpace=wrap;html=1;" parent="1" vertex="1">
          <mxGeometry x="320" y="190" width="120" height="40" as="geometry" />
        </mxCell>
        <mxCell id="ThG-nrVXH7HYm3xRA08Z-8" value="Просмотр статистики" style="rounded=0;whiteSpace=wrap;html=1;" parent="1" vertex="1">
          <mxGeometry x="320" y="310" width="120" height="40" as="geometry" />
        </mxCell>
        <mxCell id="ThG-nrVXH7HYm3xRA08Z-9" value="Просмотр рейтинга" style="rounded=0;whiteSpace=wrap;html=1;" parent="1" vertex="1">
          <mxGeometry x="320" y="370" width="120" height="40" as="geometry" />
        </mxCell>
        <mxCell id="ThG-nrVXH7HYm3xRA08Z-10" value="Создание групп" style="rounded=0;whiteSpace=wrap;html=1;" parent="1" vertex="1">
          <mxGeometry x="320" y="430" width="120" height="40" as="geometry" />
        </mxCell>
        <mxCell id="ThG-nrVXH7HYm3xRA08Z-11" value="Настройки профиля" style="rounded=0;whiteSpace=wrap;html=1;" parent="1" vertex="1">
          <mxGeometry x="320" y="490" width="120" height="40" as="geometry" />
        </mxCell>
      </root>
    </mxGraphModel>
  </diagram>
</mxfile>
